# xmcd
#
# Track frame offsets:
#	150
#	20067
#	33919
#	47451
#	68913
#	79092
#	86449
#	94919
#
# Disc length: 1543 seconds
#
# Revision: 1
# Processed by: cddbd v1.5.1PL0 Copyright (c) Steve Scherf et al.
# Submitted via: CDex 1.50Beta5
#
DISCID=5a060508
DTITLE=O.P.King - O.P.King
DYEAR=2003
DGENRE=Rock
TTITLE0=O.P.Kingのテーマ
TTITLE1=ミサイル畑で雇われて
TTITLE2=Rock'N'Rollが必要だ
TTITLE3=Over
TTITLE4=Bad Boy
TTITLE5=RIP IT UP ~ Ready Teddy
TTITLE6=Hippy Hippy Shake
TTITLE7=通り過ぎる夏
EXTD=
EXTT0=
EXTT1=
EXTT2=
EXTT3=
EXTT4=
EXTT5=
EXTT6=
EXTT7=
PLAYORDER=
